<?xml version="1.0" standalone="no"?>
<!DOCTYPE svg PUBLIC "-//W3C//DTD SVG 20010904//EN"
 "http://www.w3.org/TR/2001/REC-SVG-20010904/DTD/svg10.dtd">
<svg version="1.0" xmlns="http://www.w3.org/2000/svg"
 width="512.000000pt" height="512.000000pt" viewBox="0 0 512.000000 512.000000"
 preserveAspectRatio="xMidYMid meet">

<g transform="translate(0.000000,512.000000) scale(0.100000,-0.100000)"
fill="#000000" stroke="none">
<path d="M4019 810 l-116 -118 124 -124 124 -123 113 120 114 119 -116 123
c-63 68 -118 123 -121 122 -3 -1 -58 -54 -122 -119z"/>
<path d="M4510 314 l-115 -115 77 -75 c71 -68 81 -74 119 -74 37 0 48 6 115
71 75 74 85 93 72 144 -7 25 -132 165 -148 165 -3 0 -57 -52 -120 -116z"/>
</g>
</svg>
